<svg xmlns="http://www.w3.org/2000/svg" viewBox="0 0 64 64">
  <defs>
    <linearGradient id="bg" x1="0" y1="0" x2="1" y2="1">
      <stop offset="0%" stop-color="#1a1928"/>
      <stop offset="100%" stop-color="#0f0e17"/>
    </linearGradient>
    <linearGradient id="accent" x1="0" y1="0" x2="0" y2="1">
      <stop offset="0%" stop-color="#9470d6"/>
      <stop offset="100%" stop-color="#7c5cbf"/>
    </linearGradient>
  </defs>
  <!-- Background -->
  <rect width="64" height="64" rx="14" fill="url(#bg)"/>
  <!-- Shield shape -->
  <path d="M32 8 L52 18 V34 C52 46 42 54 32 58 C22 54 12 46 12 34 V18 Z"
    fill="none" stroke="url(#accent)" stroke-width="2.5"/>
  <!-- Crown -->
  <path d="M22 30 L25 22 L29 27 L32 18 L35 27 L39 22 L42 30 Z"
    fill="url(#accent)"/>
  <!-- Crown base -->
  <rect x="22" y="30" width="20" height="4" rx="1" fill="url(#accent)"/>
  <!-- Star below crown -->
  <path d="M32 40 L33.5 43 L37 43.5 L34.5 46 L35 49.5 L32 48 L29 49.5 L29.5 46 L27 43.5 L30.5 43 Z"
    fill="#d4a843"/>
</svg>
